<svg width="20" height="20" viewBox="0 0 20 20" fill="none" xmlns="http://www.w3.org/2000/svg">
<path d="M13.33 12.838L17.827 8.41498L17.884 8.34998C17.9684 8.23668 18.0091 8.09674 17.9986 7.95585C17.9881 7.81495 17.9272 7.68257 17.827 7.58298L13.33 3.16198L13.268 3.10898C12.908 2.83898 12.378 3.09898 12.378 3.57798V5.70798L12.153 5.72298C8.59 6.00498 6.503 8.25998 6.005 12.35C5.941 12.875 6.543 13.204 6.933 12.856C8.364 11.578 9.843 10.784 11.378 10.466C11.624 10.415 11.871 10.376 12.12 10.349L12.378 10.326V12.422L12.383 12.504C12.443 12.957 12.992 13.17 13.33 12.838ZM12.226 6.71998L13.378 6.64298V4.60998L16.824 7.99798L13.378 11.388V9.23098L12.022 9.35298H12.014C10.311 9.53598 8.704 10.218 7.187 11.355C7.485 10.016 7.994 9.00898 8.663 8.28798C9.493 7.39298 10.653 6.84498 12.226 6.71898V6.71998ZM5.5 3.99998C4.83696 3.99998 4.20107 4.26337 3.73223 4.73221C3.26339 5.20106 3 5.83694 3 6.49998V14.5C3 15.163 3.26339 15.7989 3.73223 16.2677C4.20107 16.7366 4.83696 17 5.5 17H13.5C14.163 17 14.7989 16.7366 15.2678 16.2677C15.7366 15.7989 16 15.163 16 14.5V13.5C16 13.3674 15.9473 13.2402 15.8536 13.1464C15.7598 13.0527 15.6326 13 15.5 13C15.3674 13 15.2402 13.0527 15.1464 13.1464C15.0527 13.2402 15 13.3674 15 13.5V14.5C15 14.8978 14.842 15.2793 14.5607 15.5606C14.2794 15.8419 13.8978 16 13.5 16H5.5C5.10218 16 4.72064 15.8419 4.43934 15.5606C4.15804 15.2793 4 14.8978 4 14.5V6.49998C4 6.10216 4.15804 5.72063 4.43934 5.43932C4.72064 5.15802 5.10218 4.99998 5.5 4.99998H8.5C8.63261 4.99998 8.75979 4.9473 8.85355 4.85353C8.94732 4.75977 9 4.63259 9 4.49998C9 4.36737 8.94732 4.2402 8.85355 4.14643C8.75979 4.05266 8.63261 3.99998 8.5 3.99998H5.5Z" fill="black"/>
</svg>
