<svg width="28" height="28" viewBox="0 0 28 28" fill="none" xmlns="http://www.w3.org/2000/svg">
<path d="M26.25 8.75V7H24.4116C24.2988 6.45227 24.0813 5.93146 23.7711 5.46613L25.0749 4.16237L23.8376 2.92512L22.5339 4.22888C22.0685 3.9187 21.5477 3.70122 21 3.58837V1.75H19.25V3.58837C18.7023 3.70122 18.1815 3.9187 17.7161 4.22888L16.4124 2.92512L15.1751 4.16237L16.4789 5.46613C16.1687 5.93146 15.9512 6.45227 15.8384 7H14V8.75H15.8384C15.9512 9.29773 16.1687 9.81854 16.4789 10.2839L15.1751 11.5876L16.4124 12.8249L17.7161 11.5211C18.1815 11.8313 18.7023 12.0488 19.25 12.1616V14H21V12.1616C21.5477 12.0488 22.0685 11.8313 22.5339 11.5211L23.8376 12.8249L25.0749 11.5876L23.7711 10.2839C24.0813 9.81854 24.2988 9.29773 24.4116 8.75H26.25ZM20.125 10.5C19.6058 10.5 19.0983 10.346 18.6666 10.0576C18.2349 9.76917 17.8985 9.3592 17.6998 8.87954C17.5011 8.39989 17.4492 7.87209 17.5504 7.36289C17.6517 6.85369 17.9017 6.38596 18.2688 6.01884C18.636 5.65173 19.1037 5.40173 19.6129 5.30044C20.1221 5.19915 20.6499 5.25114 21.1295 5.44982C21.6092 5.6485 22.0192 5.98495 22.3076 6.41663C22.596 6.84831 22.75 7.35582 22.75 7.875C22.7493 8.57098 22.4725 9.23826 21.9804 9.73039C21.4883 10.2225 20.821 10.4993 20.125 10.5ZM14 26.25H12.25V21.875C12.2493 21.179 11.9725 20.5117 11.4804 20.0196C10.9883 19.5275 10.321 19.2507 9.625 19.25H6.125C5.42902 19.2507 4.76174 19.5275 4.26961 20.0196C3.77748 20.5117 3.50069 21.179 3.5 21.875V26.25H1.75V21.875C1.75139 20.7151 2.21277 19.6031 3.03294 18.7829C3.85311 17.9628 4.9651 17.5014 6.125 17.5H9.625C10.7849 17.5014 11.8969 17.9628 12.7171 18.7829C13.5372 19.6031 13.9986 20.7151 14 21.875V26.25ZM7.875 8.75C8.39418 8.75 8.90169 8.90395 9.33337 9.19239C9.76505 9.48083 10.1015 9.8908 10.3002 10.3705C10.4989 10.8501 10.5508 11.3779 10.4496 11.8871C10.3483 12.3963 10.0983 12.864 9.73116 13.2312C9.36404 13.5983 8.89631 13.8483 8.38711 13.9496C7.87791 14.0508 7.35011 13.9989 6.87046 13.8002C6.3908 13.6015 5.98083 13.2651 5.69239 12.8334C5.40395 12.4017 5.25 11.8942 5.25 11.375C5.25 10.6788 5.52656 10.0111 6.01884 9.51884C6.51113 9.02656 7.17881 8.75 7.875 8.75ZM7.875 7C7.00971 7 6.16385 7.25659 5.44438 7.73732C4.72492 8.21805 4.16416 8.90133 3.83303 9.70076C3.50189 10.5002 3.41525 11.3799 3.58406 12.2285C3.75287 13.0772 4.16955 13.8567 4.78141 14.4686C5.39326 15.0804 6.17281 15.4971 7.02148 15.6659C7.87015 15.8347 8.74981 15.7481 9.54924 15.417C10.3487 15.0858 11.0319 14.5251 11.5127 13.8056C11.9934 13.0862 12.25 12.2403 12.25 11.375C12.25 10.8005 12.1368 10.2316 11.917 9.70076C11.6971 9.16996 11.3748 8.68766 10.9686 8.28141C10.5623 7.87515 10.08 7.55289 9.54924 7.33303C9.01844 7.11316 8.44953 7 7.875 7Z" fill="#FFB300"/>
</svg>
