<svg width="28" height="28" viewBox="0 0 28 28" fill="none" xmlns="http://www.w3.org/2000/svg">
<path d="M8.16675 12.8334H10.5001V15.1667H8.16675V12.8334ZM8.16675 17.5H10.5001V19.8334H8.16675V17.5ZM12.8334 12.8334H15.1667V15.1667H12.8334V12.8334ZM12.8334 17.5H15.1667V19.8334H12.8334V17.5ZM17.5001 12.8334H19.8334V15.1667H17.5001V12.8334ZM17.5001 17.5H19.8334V19.8334H17.5001V17.5Z" fill="#FFB300"/>
<path d="M5.83333 25.6667H22.1667C23.4535 25.6667 24.5 24.6202 24.5 23.3334V7.00004C24.5 5.71321 23.4535 4.66671 22.1667 4.66671H19.8333V2.33337H17.5V4.66671H10.5V2.33337H8.16667V4.66671H5.83333C4.5465 4.66671 3.5 5.71321 3.5 7.00004V23.3334C3.5 24.6202 4.5465 25.6667 5.83333 25.6667ZM22.1667 9.33337L22.1678 23.3334H5.83333V9.33337H22.1667Z" fill="#FFB300"/>
</svg>
