<svg width="28" height="28" viewBox="0 0 28 28" fill="none" xmlns="http://www.w3.org/2000/svg">
<path d="M23.3334 11.3333V20.6666C23.3334 21.3739 23.0525 22.0521 22.5524 22.5522C22.0523 23.0523 21.374 23.3333 20.6668 23.3333H7.39078C6.68561 23.3333 6.00914 23.054 5.50939 22.5565C5.00963 22.059 4.72728 21.3838 4.72411 20.6786L4.66678 7.34529C4.66358 6.63828 4.9413 5.95893 5.43886 5.45662C5.93642 4.95431 6.61309 4.67015 7.32011 4.66663H16.6668" stroke="#FFB300" stroke-width="1.8" stroke-linecap="round" stroke-linejoin="round"/>
<path d="M22.6667 7.99996C24.1394 7.99996 25.3333 6.80605 25.3333 5.33329C25.3333 3.86053 24.1394 2.66663 22.6667 2.66663C21.1939 2.66663 20 3.86053 20 5.33329C20 6.80605 21.1939 7.99996 22.6667 7.99996Z" fill="#FFB300" stroke="#FFB300" stroke-linecap="round" stroke-linejoin="round"/>
</svg>
