<svg width="28" height="28" viewBox="0 0 28 28" fill="none" xmlns="http://www.w3.org/2000/svg">
<path d="M20.125 17.5001C19.47 17.5033 18.8242 17.6537 18.235 17.9399C17.6459 18.2261 17.1286 18.6409 16.7212 19.1538L10.325 15.1551C10.5581 14.4027 10.5581 13.5974 10.325 12.8451L16.7212 8.84631C17.3704 9.65018 18.2832 10.1983 19.2979 10.3937C20.3125 10.589 21.3636 10.4189 22.2648 9.91348C23.1661 9.40807 23.8593 8.59999 24.2218 7.63237C24.5843 6.66476 24.5926 5.60007 24.2453 4.62691C23.898 3.65375 23.2174 2.83493 22.3242 2.31551C21.4309 1.79608 20.3827 1.60958 19.3651 1.78903C18.3475 1.96848 17.4263 2.5023 16.7646 3.29594C16.1029 4.08957 15.7435 5.09179 15.75 6.12506C15.7541 6.51634 15.813 6.90511 15.925 7.28006L9.52873 11.2788C8.96404 10.5679 8.1922 10.0503 7.32019 9.79778C6.44817 9.54521 5.51918 9.57016 4.66199 9.86919C3.80479 10.1682 3.06186 10.7265 2.53615 11.4667C2.01045 12.2068 1.72803 13.0922 1.72803 14.0001C1.72803 14.9079 2.01045 15.7933 2.53615 16.5334C3.06186 17.2736 3.80479 17.8319 4.66199 18.1309C5.51918 18.4299 6.44817 18.4549 7.32019 18.2023C8.1922 17.9498 8.96404 17.4322 9.52873 16.7213L15.925 20.7201C15.813 21.095 15.7541 21.4838 15.75 21.8751C15.75 22.7403 16.0066 23.5862 16.4873 24.3057C16.968 25.0251 17.6513 25.5859 18.4507 25.917C19.2502 26.2482 20.1298 26.3348 20.9785 26.166C21.8272 25.9972 22.6067 25.5805 23.2186 24.9686C23.8304 24.3568 24.2471 23.5772 24.4159 22.7286C24.5847 21.8799 24.4981 21.0002 24.167 20.2008C23.8358 19.4014 23.2751 18.7181 22.5556 18.2374C21.8361 17.7566 20.9903 17.5001 20.125 17.5001ZM20.125 3.50006C20.6442 3.50006 21.1517 3.65401 21.5833 3.94245C22.015 4.23089 22.3515 4.64086 22.5502 5.12051C22.7488 5.60017 22.8008 6.12797 22.6995 6.63717C22.5983 7.14637 22.3482 7.6141 21.9811 7.98121C21.614 8.34832 21.1463 8.59833 20.6371 8.69962C20.1279 8.8009 19.6001 8.74892 19.1204 8.55024C18.6408 8.35156 18.2308 8.01511 17.9424 7.58343C17.6539 7.15175 17.5 6.64423 17.5 6.12506C17.5 5.42886 17.7765 4.76118 18.2688 4.2689C18.7611 3.77662 19.4288 3.50006 20.125 3.50006ZM6.12498 16.6251C5.6058 16.6251 5.09828 16.4711 4.66661 16.1827C4.23493 15.8942 3.89847 15.4843 3.69979 15.0046C3.50111 14.5249 3.44913 13.9971 3.55042 13.4879C3.6517 12.9787 3.90171 12.511 4.26882 12.1439C4.63594 11.7768 5.10367 11.5268 5.61287 11.4255C6.12207 11.3242 6.64987 11.3762 7.12952 11.5749C7.60918 11.7736 8.01915 12.11 8.30759 12.5417C8.59602 12.9734 8.74998 13.4809 8.74998 14.0001C8.74998 14.6962 8.47342 15.3639 7.98113 15.8562C7.48885 16.3485 6.82117 16.6251 6.12498 16.6251ZM20.125 24.5001C19.6058 24.5001 19.0983 24.3461 18.6666 24.0577C18.2349 23.7692 17.8985 23.3593 17.6998 22.8796C17.5011 22.3999 17.4491 21.8721 17.5504 21.3629C17.6517 20.8537 17.9017 20.386 18.2688 20.0189C18.6359 19.6518 19.1037 19.4018 19.6129 19.3005C20.1221 19.1992 20.6499 19.2512 21.1295 19.4499C21.6092 19.6486 22.0191 19.985 22.3076 20.4167C22.596 20.8484 22.75 21.3559 22.75 21.8751C22.75 22.5712 22.4734 23.2389 21.9811 23.7312C21.4888 24.2235 20.8212 24.5001 20.125 24.5001Z" fill="#FFB300"/>
</svg>
