<svg width="28" height="28" viewBox="0 0 28 28" fill="none" xmlns="http://www.w3.org/2000/svg">
<path d="M13.9999 2.33325C7.56692 2.33325 2.33325 7.56692 2.33325 13.9999V18.8334C2.33325 20.0281 3.37975 20.9999 4.66659 20.9999H5.83325C6.14267 20.9999 6.43942 20.877 6.65821 20.6582C6.877 20.4394 6.99992 20.1427 6.99992 19.8333V13.8331C6.99992 13.5237 6.877 13.2269 6.65821 13.0081C6.43942 12.7893 6.14267 12.6664 5.83325 12.6664H4.77392C5.42259 8.15142 9.30759 4.66659 13.9999 4.66659C18.6923 4.66659 22.5773 8.15142 23.2259 12.6664H22.1666C21.8572 12.6664 21.5604 12.7893 21.3416 13.0081C21.1228 13.2269 20.9999 13.5237 20.9999 13.8331V20.9999C20.9999 22.2868 19.9534 23.3333 18.6666 23.3333H16.3333V22.1666H11.6666V25.6666H18.6666C21.2403 25.6666 23.3333 23.5736 23.3333 20.9999C24.6201 20.9999 25.6666 20.0281 25.6666 18.8334V13.9999C25.6666 7.56692 20.4329 2.33325 13.9999 2.33325Z" fill="#FFB300"/>
</svg>
