<svg width="28" height="28" viewBox="0 0 28 28" fill="none" xmlns="http://www.w3.org/2000/svg">
<path d="M9.33341 16.3334H18.6667M9.33341 11.6667H11.6667M9.33341 21.0001H14.0001M11.6667 3.50008H7.00008C6.38124 3.50008 5.78775 3.74591 5.35017 4.1835C4.91258 4.62108 4.66675 5.21458 4.66675 5.83341V23.3334C4.66675 23.9523 4.91258 24.5457 5.35017 24.9833C5.78775 25.4209 6.38124 25.6667 7.00008 25.6667H21.0001C21.6189 25.6667 22.2124 25.4209 22.65 24.9833C23.0876 24.5457 23.3334 23.9523 23.3334 23.3334V5.83341C23.3334 5.21458 23.0876 4.62108 22.65 4.1835C22.2124 3.74591 21.6189 3.50008 21.0001 3.50008H16.9167M11.6667 3.50008V1.16675M11.6667 3.50008V5.83341" stroke="#FFB300" stroke-width="1.5" stroke-linecap="round" stroke-linejoin="round"/>
</svg>
