<svg width="26" height="26" viewBox="0 0 26 26" fill="none" xmlns="http://www.w3.org/2000/svg">
<path d="M12.4565 1.91574L12.4548 1.9158C11.9514 1.9348 11.2864 2.01031 10.7045 2.12852C7.14528 2.82455 4.08163 5.31242 2.63909 8.67508C1.74438 10.758 1.51296 13.1833 2.0002 15.4256C2.7054 18.6771 4.89556 21.4908 7.89879 22.9995C9.06247 23.586 10.3066 23.9597 11.6158 24.1157M12.4565 1.91574L15.2067 23.6826C14.9053 23.7441 14.3992 23.8327 14.1151 23.8675M12.4565 1.91574C15.6894 1.81649 18.6384 3.00901 20.8749 5.31639C22.5823 7.07588 23.6609 9.34167 23.9495 11.7638L23.9496 11.7644C24.0165 12.3382 24.0167 13.7592 23.9494 14.3115L23.9494 14.3116C23.9231 14.5273 23.8676 14.8604 23.8159 15.1406C23.7899 15.2812 23.7644 15.411 23.7434 15.5085C23.733 15.5568 23.7231 15.5997 23.7144 15.6328C23.7102 15.6489 23.7053 15.6665 23.6998 15.6827C23.6972 15.6905 23.693 15.7022 23.6872 15.7151L23.6869 15.7157C23.6842 15.722 23.6676 15.7598 23.6329 15.7945C23.5755 15.852 23.5095 15.8638 23.4812 15.8668C23.4499 15.8702 23.4248 15.8669 23.4125 15.8649C23.3871 15.8608 23.3671 15.8536 23.3586 15.8505C23.3389 15.8433 23.3202 15.8342 23.3069 15.8276C23.2782 15.8131 23.2427 15.7931 23.2047 15.7709C23.1275 15.7255 23.0258 15.662 22.9173 15.5913C22.8117 15.5224 22.7144 15.4602 22.6419 15.4156C22.6053 15.3931 22.5773 15.3764 22.5586 15.366C22.5579 15.3656 22.5572 15.3652 22.5566 15.3649C22.4624 15.3335 22.419 15.2535 22.4088 15.2321C22.3917 15.1959 22.3869 15.1636 22.3853 15.1523C22.3814 15.1244 22.3816 15.0978 22.382 15.0821C22.383 15.0462 22.387 15.0013 22.392 14.9548C22.4024 14.8594 22.4204 14.7304 22.4413 14.591L22.4413 14.591L22.4419 14.5871C22.7571 12.6915 22.455 10.5935 21.6126 8.85015L21.6125 8.85008C20.4721 6.48804 18.3887 4.6663 15.9098 3.8505C13.8883 3.19187 11.8805 3.1876 9.86006 3.85057L9.8595 3.85075C8.32317 4.35085 7.0585 5.15123 5.8926 6.35778C4.84577 7.44528 4.14895 8.60097 3.68453 10.0258L3.68437 10.0263C3.02124 12.0472 3.02118 14.0505 3.68441 16.0763C5.15837 20.5748 9.77123 23.3831 14.4255 22.6081L14.4288 22.6076C14.5661 22.5867 14.694 22.5687 14.789 22.5583C14.8353 22.5532 14.88 22.5492 14.9159 22.5482C14.9316 22.5478 14.9583 22.5476 14.9861 22.5515C14.9975 22.5531 15.0298 22.5579 15.0659 22.5751C15.0874 22.5852 15.1674 22.6286 15.1987 22.7228L12.4565 1.91574ZM11.6158 24.1157C11.6159 24.1157 11.616 24.1157 11.6161 24.1157L11.6457 23.8675M11.6158 24.1157C11.6157 24.1157 11.6156 24.1156 11.6155 24.1156L11.6457 23.8675M11.6158 24.1157C11.898 24.15 12.3976 24.166 12.8839 24.166C13.37 24.166 13.8677 24.15 14.1456 24.1156C14.1457 24.1156 14.1458 24.1156 14.1458 24.1156L14.1151 23.8675M11.6457 23.8675C10.3648 23.7149 9.14859 23.3495 8.01102 22.7761C5.07459 21.301 2.93354 18.5495 2.24452 15.3726C1.76821 13.1807 1.9948 10.8084 2.8688 8.77375L14.1151 23.8675M11.6457 23.8675C12.1775 23.9322 13.5925 23.9322 14.1151 23.8675M22.6377 14.8775C22.643 14.8775 22.6481 14.8777 22.6531 14.878C22.6531 14.878 22.6531 14.878 22.6531 14.878C22.6481 14.8777 22.6429 14.8775 22.6377 14.8775ZM14.7118 22.8195C14.7118 22.8195 14.7118 22.8195 14.7118 22.8195C14.7115 22.8144 14.7113 22.8092 14.7113 22.8039C14.7113 22.8092 14.7115 22.8144 14.7118 22.8195Z" fill="white" stroke="white" stroke-width="0.5"/>
<path d="M19.3496 15.3522L19.3498 15.3522C19.8308 15.2855 20.6391 15.3376 21.1496 15.4652L21.15 15.4653C23.8831 16.1592 25.4612 19.0343 24.5587 21.6801C23.6005 24.4933 20.4037 25.7928 17.7823 24.4372L17.7822 24.4371C16.5361 23.7905 15.6577 22.6946 15.2945 21.3125L15.2945 21.3124C15.1899 20.9131 15.171 20.7468 15.171 20.1449C15.171 19.5382 15.19 19.3763 15.2992 18.9678C15.8042 17.0518 17.3995 15.626 19.3496 15.3522ZM21.0117 16.6101L21.011 16.6098C20.7711 16.5313 20.575 16.5084 20.0915 16.4945C19.6804 16.4854 19.3951 16.4995 19.131 16.557C18.8676 16.6145 18.6199 16.7164 18.286 16.8902L18.2854 16.8905C17.4183 17.3353 16.7463 18.15 16.4347 19.1342C16.3468 19.4198 16.3329 19.5511 16.3329 20.1449C16.3329 20.7387 16.3468 20.87 16.4347 21.1555C16.9495 22.7807 18.3274 23.8183 19.9693 23.8183C21.0293 23.8183 21.8224 23.4868 22.5714 22.7378C23.3204 21.9887 23.652 21.1956 23.652 20.1356C23.652 18.5024 22.623 17.1246 21.0117 16.6101Z" fill="white" stroke="white" stroke-width="0.2"/>
<path d="M19.5299 22.1933L19.5299 22.1933L19.5299 22.1933ZM18.7672 20.2962L18.7672 20.2962L18.7676 20.2966C18.9748 20.4554 19.1664 20.5953 19.3078 20.6923C19.3748 20.7382 19.4292 20.7736 19.4682 20.7966C19.624 20.6128 20.1181 20.0352 20.6886 19.3721C21.0288 18.9742 21.3424 18.613 21.5736 18.3524C21.6891 18.2221 21.7844 18.1164 21.8522 18.0437C21.886 18.0075 21.9138 17.9785 21.9343 17.9585C21.9442 17.9488 21.9541 17.9395 21.9629 17.9323C21.9668 17.929 21.9736 17.9236 21.9819 17.9187C21.9857 17.9165 21.994 17.9117 22.0052 17.9083C22.0119 17.9062 22.0423 17.8969 22.0769 17.9123C22.0904 17.9182 22.1026 17.9267 22.108 17.9305L22.1083 17.9307C22.1171 17.9368 22.1275 17.9445 22.1387 17.9531C22.1612 17.9705 22.1903 17.9938 22.2236 18.0213C22.2904 18.0764 22.3767 18.1499 22.4673 18.2289L22.4674 18.2289L22.7957 18.5156L22.871 18.5814L22.8053 18.6567L21.2285 20.4647C20.7958 20.9621 20.3965 21.4135 20.1018 21.7395C19.9545 21.9025 19.8328 22.0346 19.746 22.1257C19.7027 22.171 19.6672 22.2071 19.6411 22.232C19.6284 22.2442 19.6162 22.2553 19.6056 22.2637C19.6007 22.2676 19.5933 22.2733 19.5847 22.2783C19.5806 22.2806 19.5729 22.2849 19.5627 22.2882C19.5558 22.2904 19.5297 22.2986 19.4983 22.2881L19.4983 22.2882L19.4953 22.2871C19.4821 22.2822 19.4696 22.2746 19.4638 22.2711C19.4555 22.266 19.4458 22.2597 19.4352 22.2525C19.4139 22.2382 19.3861 22.2186 19.3532 22.1949C19.2873 22.1474 19.1984 22.0817 19.0947 22.0039C18.8872 21.8484 18.619 21.6437 18.3537 21.4389C18.0885 21.2341 17.8258 21.0288 17.6292 20.872C17.531 20.7937 17.4487 20.727 17.3908 20.6784C17.362 20.6543 17.3383 20.6338 17.3214 20.6182C17.3131 20.6106 17.305 20.6028 17.2983 20.5956C17.2951 20.5922 17.2904 20.5869 17.2858 20.5804C17.2836 20.5773 17.2798 20.5718 17.2763 20.5645C17.2737 20.5593 17.2657 20.5424 17.2657 20.5193C17.2657 20.5017 17.2701 20.4874 17.2721 20.4812C17.2747 20.4733 17.2778 20.466 17.2806 20.46C17.2862 20.448 17.2933 20.4349 17.3009 20.4219C17.3163 20.3956 17.3374 20.3629 17.3617 20.3271C17.4104 20.255 17.4754 20.1652 17.5413 20.0776C17.6073 19.9901 17.6752 19.9036 17.7301 19.8384C17.7574 19.806 17.7827 19.7775 17.8035 19.7564C17.8137 19.7461 17.8248 19.7355 17.8357 19.7269C17.8411 19.7226 17.8486 19.7171 17.8577 19.7121C17.8639 19.7087 17.8841 19.6979 17.9114 19.6979C17.9324 19.6979 17.9488 19.7048 17.9515 19.7059C17.9516 19.7059 17.9517 19.706 17.9518 19.706C17.9574 19.7083 17.9623 19.7108 17.9656 19.7125C17.9724 19.7161 17.9797 19.7205 17.9866 19.7248C18.0008 19.7337 18.0193 19.746 18.041 19.7609C18.0846 19.7909 18.1448 19.8339 18.217 19.8864C18.3616 19.9915 18.5564 20.1364 18.7672 20.2962ZM19.4195 20.8545C19.4202 20.8537 19.421 20.8526 19.422 20.8514C19.4211 20.8524 19.4203 20.8534 19.4194 20.8545L19.4195 20.8545Z" fill="white" stroke="white" stroke-width="0.2"/>
<path d="M13.8442 6C14.2391 6 14.5601 6.31629 14.5601 6.70558V13.7304L8.04313 17.0504C7.93766 17.1035 7.82545 17.13 7.71549 17.13C7.45741 17.13 7.20607 16.9907 7.0804 16.7496C6.89863 16.4045 7.03552 15.9776 7.38785 15.8007L13.1328 12.8744V6.70337C13.1283 6.31408 13.4492 6 13.8442 6Z" fill="white"/>
</svg>
