<svg width="26" height="26" viewBox="0 0 26 26" fill="none" xmlns="http://www.w3.org/2000/svg">
<path d="M23.8314 15.4035C23.8938 15.0982 23.9843 14.5816 24.0197 14.2921C24.0854 13.7525 24.0854 12.3308 24.0197 11.7677L23.8314 15.4035ZM23.8314 15.4035C23.8371 15.4066 23.842 15.4092 23.8461 15.4112C23.851 15.4138 23.8526 15.4144 23.8516 15.414C23.8509 15.4137 23.849 15.4128 23.846 15.4118L23.8458 15.4117C23.8443 15.4111 23.8389 15.4091 23.8307 15.4069M12.6082 1.74871L12.61 1.74865L15.4042 23.8307C15.0988 23.8932 14.5822 23.9837 14.2928 24.0191L14.3235 24.2672C14.3234 24.2672 14.3234 24.2672 14.3233 24.2672C14.0416 24.3021 13.5368 24.3184 13.0435 24.3184C12.55 24.3184 12.0433 24.3021 11.7573 24.2673C10.4292 24.109 9.16722 23.7301 7.98682 23.1351C4.9405 21.6048 2.71891 18.7507 2.00356 15.4526C1.50931 13.1781 1.74405 10.7179 2.6516 8.60504C4.11482 5.19417 7.22238 2.67061 10.8325 1.96453C11.4229 1.84459 12.0976 1.76798 12.6082 1.74871Z" fill="white" stroke="white" stroke-width="0.5"/>
<path d="M19.6045 15.3801L19.6047 15.3801C20.0925 15.3125 20.9125 15.3653 21.4304 15.4948L21.4308 15.4949C24.2032 16.1987 25.804 19.1152 24.8886 21.799C23.9166 24.6527 20.6738 25.9709 18.0147 24.5958L18.0146 24.5957C16.7506 23.9398 15.8595 22.8281 15.4911 21.4262L15.4911 21.4261C15.385 21.0211 15.3658 20.8524 15.3658 20.2418C15.3658 19.6262 15.385 19.4621 15.4959 19.0478C16.0081 17.1043 17.6264 15.6579 19.6045 15.3801ZM21.2912 16.6536L21.2906 16.6534C21.0469 16.5737 20.8478 16.5504 20.3572 16.5363C19.94 16.527 19.6503 16.5413 19.3822 16.5998C19.1148 16.6581 18.8633 16.7616 18.5244 16.938L18.5239 16.9383C17.6436 17.3898 16.9615 18.2168 16.6452 19.2158C16.556 19.5058 16.5418 19.6392 16.5418 20.2418C16.5418 20.8443 16.556 20.9777 16.6452 21.2677C17.1677 22.9173 18.5664 23.9706 20.2331 23.9706C20.7673 23.9706 21.0469 23.9252 21.5045 23.7651L21.5046 23.765C22.407 23.4506 23.2776 22.6446 23.6749 21.7451L23.6749 21.7449C24.0716 20.8514 24.0671 19.6327 23.6703 18.7386C23.2368 17.7621 22.3637 16.9974 21.2912 16.6536Z" fill="white" stroke="white" stroke-width="0.2"/>
<path d="M20.929 19.8369H21.9692C22.2822 19.8369 22.5742 19.8416 22.7924 19.8487C22.9015 19.8522 22.9928 19.8564 23.0595 19.8609C23.0926 19.8631 23.1208 19.8656 23.1425 19.8682C23.1532 19.8695 23.1638 19.871 23.1732 19.8728L23.1738 19.873C23.1794 19.8741 23.198 19.8777 23.2154 19.8876L23.2155 19.8874L23.2212 19.8912C23.2582 19.9159 23.2766 19.9532 23.2868 19.9827C23.2974 20.0136 23.3039 20.0502 23.308 20.0902C23.3164 20.1706 23.3173 20.2842 23.3126 20.4374L23.3126 20.4377L23.2985 20.8553L23.2953 20.9507L23.1998 20.9519L22.0174 20.966L22.017 20.966L20.9282 20.9746L20.9196 22.0398L20.9196 22.0402L20.9056 23.1992L20.9044 23.298H20.8056H20.3598H19.9141H19.8153L19.8141 23.1992L19.8 22.0355L19.8 22.0351L19.7914 20.9754H18.7128H17.5398H17.4367L17.4398 20.8723L17.4539 20.4125L17.4539 20.4124L17.468 19.9573L17.471 19.8615L17.5667 19.8604L18.7304 19.8463L18.7308 19.8463L19.7906 19.8377V18.8108V17.6846V17.5846H19.8906H20.3598H20.829H20.929V17.6846V18.8108V19.8369Z" fill="white" stroke="white" stroke-width="0.2"/>
<path d="M13.8442 6C14.2391 6 14.5601 6.31629 14.5601 6.70558V13.7304L8.04313 17.0504C7.93766 17.1035 7.82545 17.13 7.71549 17.13C7.45742 17.13 7.20607 16.9907 7.0804 16.7496C6.89863 16.4045 7.03552 15.9776 7.38785 15.8007L13.1328 12.8744V6.70337C13.1283 6.31408 13.4492 6 13.8442 6Z" fill="white"/>
</svg>
