<svg width="20" height="20" viewBox="0 0 20 20" fill="none" xmlns="http://www.w3.org/2000/svg">
<path d="M10.7904 16.4034L10.7888 16.4049C10.3464 16.8065 9.66423 16.8063 9.22196 16.399L9.21955 16.3968L9.12789 16.3134L9.12701 16.3126C6.92904 14.324 5.15477 12.7155 3.93695 11.2059C2.72643 9.70538 2.1179 8.36463 2.16625 6.91726C2.21096 5.65438 2.85915 4.44562 3.89795 3.73836L3.89822 3.73817C5.85625 2.40315 8.29312 3.01377 9.61974 4.56651L9.99988 5.01146L10.38 4.56651C11.7077 3.01256 14.144 2.39607 16.1005 3.73744L16.1018 3.73836C17.1407 4.4457 17.7889 5.65466 17.8335 6.91769L17.8335 6.91809C17.8857 8.36473 17.2778 9.70507 16.0659 11.2081C14.8509 12.7148 13.0825 14.3216 10.8945 16.3095L10.8737 16.3284L10.872 16.33L10.7904 16.4034Z" stroke="black"/>
</svg>
