<svg width="20" height="20" viewBox="0 0 20 20" fill="none" xmlns="http://www.w3.org/2000/svg">
<path d="M7.085 3C7.18844 2.70742 7.38008 2.45413 7.63351 2.27503C7.88694 2.09593 8.18967 1.99984 8.5 2H11.5C11.8103 1.99984 12.1131 2.09593 12.3665 2.27503C12.6199 2.45413 12.8116 2.70742 12.915 3H14.5C14.8978 3 15.2794 3.15804 15.5607 3.43934C15.842 3.72064 16 4.10218 16 4.5V14.984C15.5707 15.1976 15.2205 15.5422 15 15.968V4.5C15 4.36739 14.9473 4.24022 14.8536 4.14645C14.7598 4.05268 14.6326 4 14.5 4H12.915C12.8116 4.29258 12.6199 4.54587 12.3665 4.72497C12.1131 4.90407 11.8103 5.00016 11.5 5H8.5C8.18967 5.00016 7.88694 4.90407 7.63351 4.72497C7.38008 4.54587 7.18844 4.29258 7.085 4H5.5C5.36739 4 5.24021 4.05268 5.14645 4.14645C5.05268 4.24022 5 4.36739 5 4.5V16.5C5 16.6326 5.05268 16.7598 5.14645 16.8536C5.24021 16.9473 5.36739 17 5.5 17H6.75C6.75 17.36 6.834 17.699 6.984 18H5.5C5.10218 18 4.72064 17.842 4.43934 17.5607C4.15804 17.2794 4 16.8978 4 16.5V4.5C4 4.10218 4.15804 3.72064 4.43934 3.43934C4.72064 3.15804 5.10218 3 5.5 3H7.085ZM8.5 3C8.36739 3 8.24021 3.05268 8.14645 3.14645C8.05268 3.24022 8 3.36739 8 3.5C8 3.63261 8.05268 3.75979 8.14645 3.85355C8.24021 3.94732 8.36739 4 8.5 4H11.5C11.6326 4 11.7598 3.94732 11.8536 3.85355C11.9473 3.75979 12 3.63261 12 3.5C12 3.36739 11.9473 3.24022 11.8536 3.14645C11.7598 3.05268 11.6326 3 11.5 3H8.5ZM10.25 17C10.25 17.3315 10.1183 17.6495 9.88388 17.8839C9.64946 18.1183 9.33152 18.25 9 18.25C8.66848 18.25 8.35054 18.1183 8.11612 17.8839C7.8817 17.6495 7.75 17.3315 7.75 17C7.75 16.6685 7.8817 16.3505 8.11612 16.1161C8.35054 15.8817 8.66848 15.75 9 15.75C9.33152 15.75 9.64946 15.8817 9.88388 16.1161C10.1183 16.3505 10.25 16.6685 10.25 17ZM13 18.25C13.3315 18.25 13.6495 18.1183 13.8839 17.8839C14.1183 17.6495 14.25 17.3315 14.25 17C14.25 16.6685 14.1183 16.3505 13.8839 16.1161C13.6495 15.8817 13.3315 15.75 13 15.75C12.6685 15.75 12.3505 15.8817 12.1161 16.1161C11.8817 16.3505 11.75 16.6685 11.75 17C11.75 17.3315 11.8817 17.6495 12.1161 17.8839C12.3505 18.1183 12.6685 18.25 13 18.25ZM17 18.25C17.3315 18.25 17.6495 18.1183 17.8839 17.8839C18.1183 17.6495 18.25 17.3315 18.25 17C18.25 16.6685 18.1183 16.3505 17.8839 16.1161C17.6495 15.8817 17.3315 15.75 17 15.75C16.6685 15.75 16.3505 15.8817 16.1161 16.1161C15.8817 16.3505 15.75 16.6685 15.75 17C15.75 17.3315 15.8817 17.6495 16.1161 17.8839C16.3505 18.1183 16.6685 18.25 17 18.25Z" fill="black"/>
</svg>
