<svg width="26" height="26" viewBox="0 0 26 26" fill="none" xmlns="http://www.w3.org/2000/svg">
<path d="M24.25 21.75V13.3337C24.25 12.6555 24.112 11.9844 23.8445 11.3612C23.577 10.738 23.1854 10.1758 22.6937 9.7087L14.7225 2.13745C14.2579 1.69606 13.6415 1.44995 13.0006 1.44995C12.3598 1.44995 11.7434 1.69606 11.2788 2.13745L3.30625 9.7087C2.81457 10.1758 2.42304 10.738 2.15551 11.3612C1.88797 11.9844 1.75 12.6555 1.75 13.3337V21.75C1.75 22.413 2.01339 23.0489 2.48223 23.5177C2.95107 23.9866 3.58696 24.25 4.25 24.25H21.75C22.413 24.25 23.0489 23.9866 23.5178 23.5177C23.9866 23.0489 24.25 22.413 24.25 21.75Z" stroke="black" stroke-width="2" stroke-linecap="round" stroke-linejoin="round"/>
</svg>
