<svg width="20" height="20" viewBox="0 0 20 20" fill="none" xmlns="http://www.w3.org/2000/svg">
<path fill-rule="evenodd" clip-rule="evenodd" d="M5.83333 3.33333H3.33333V5.83333H5.83333V3.33333ZM3.33333 2.5C3.11232 2.5 2.90036 2.5878 2.74408 2.74408C2.5878 2.90036 2.5 3.11232 2.5 3.33333V5.83333C2.5 6.05435 2.5878 6.26631 2.74408 6.42259C2.90036 6.57887 3.11232 6.66667 3.33333 6.66667H5.83333C6.05435 6.66667 6.26631 6.57887 6.42259 6.42259C6.57887 6.26631 6.66667 6.05435 6.66667 5.83333V3.33333C6.66667 3.11232 6.57887 2.90036 6.42259 2.74408C6.26631 2.5878 6.05435 2.5 5.83333 2.5H3.33333ZM5.83333 8.75H3.33333V11.25H5.83333V8.75ZM3.33333 7.91667C3.11232 7.91667 2.90036 8.00446 2.74408 8.16074C2.5878 8.31702 2.5 8.52899 2.5 8.75V11.25C2.5 11.471 2.5878 11.683 2.74408 11.8393C2.90036 11.9955 3.11232 12.0833 3.33333 12.0833H5.83333C6.05435 12.0833 6.26631 11.9955 6.42259 11.8393C6.57887 11.683 6.66667 11.471 6.66667 11.25V8.75C6.66667 8.52899 6.57887 8.31702 6.42259 8.16074C6.26631 8.00446 6.05435 7.91667 5.83333 7.91667H3.33333ZM5.83333 14.1667H3.33333V16.6667H5.83333V14.1667ZM3.33333 13.3333C3.11232 13.3333 2.90036 13.4211 2.74408 13.5774C2.5878 13.7337 2.5 13.9457 2.5 14.1667V16.6667C2.5 16.8877 2.5878 17.0996 2.74408 17.2559C2.90036 17.4122 3.11232 17.5 3.33333 17.5H5.83333C6.05435 17.5 6.26631 17.4122 6.42259 17.2559C6.57887 17.0996 6.66667 16.8877 6.66667 16.6667V14.1667C6.66667 13.9457 6.57887 13.7337 6.42259 13.5774C6.26631 13.4211 6.05435 13.3333 5.83333 13.3333H3.33333ZM11.25 3.33333H8.75V5.83333H11.25V3.33333ZM8.75 2.5C8.52899 2.5 8.31702 2.5878 8.16074 2.74408C8.00446 2.90036 7.91667 3.11232 7.91667 3.33333V5.83333C7.91667 6.05435 8.00446 6.26631 8.16074 6.42259C8.31702 6.57887 8.52899 6.66667 8.75 6.66667H11.25C11.471 6.66667 11.683 6.57887 11.8393 6.42259C11.9955 6.26631 12.0833 6.05435 12.0833 5.83333V3.33333C12.0833 3.11232 11.9955 2.90036 11.8393 2.74408C11.683 2.5878 11.471 2.5 11.25 2.5H8.75ZM11.25 8.75H8.75V11.25H11.25V8.75ZM8.75 7.91667C8.52899 7.91667 8.31702 8.00446 8.16074 8.16074C8.00446 8.31702 7.91667 8.52899 7.91667 8.75V11.25C7.91667 11.471 8.00446 11.683 8.16074 11.8393C8.31702 11.9955 8.52899 12.0833 8.75 12.0833H11.25C11.471 12.0833 11.683 11.9955 11.8393 11.8393C11.9955 11.683 12.0833 11.471 12.0833 11.25V8.75C12.0833 8.52899 11.9955 8.31702 11.8393 8.16074C11.683 8.00446 11.471 7.91667 11.25 7.91667H8.75ZM11.25 14.1667H8.75V16.6667H11.25V14.1667ZM8.75 13.3333C8.52899 13.3333 8.31702 13.4211 8.16074 13.5774C8.00446 13.7337 7.91667 13.9457 7.91667 14.1667V16.6667C7.91667 16.8877 8.00446 17.0996 8.16074 17.2559C8.31702 17.4122 8.52899 17.5 8.75 17.5H11.25C11.471 17.5 11.683 17.4122 11.8393 17.2559C11.9955 17.0996 12.0833 16.8877 12.0833 16.6667V14.1667C12.0833 13.9457 11.9955 13.7337 11.8393 13.5774C11.683 13.4211 11.471 13.3333 11.25 13.3333H8.75ZM16.6667 3.33333H14.1667V5.83333H16.6667V3.33333ZM14.1667 2.5C13.9457 2.5 13.7337 2.5878 13.5774 2.74408C13.4211 2.90036 13.3333 3.11232 13.3333 3.33333V5.83333C13.3333 6.05435 13.4211 6.26631 13.5774 6.42259C13.7337 6.57887 13.9457 6.66667 14.1667 6.66667H16.6667C16.8877 6.66667 17.0996 6.57887 17.2559 6.42259C17.4122 6.26631 17.5 6.05435 17.5 5.83333V3.33333C17.5 3.11232 17.4122 2.90036 17.2559 2.74408C17.0996 2.5878 16.8877 2.5 16.6667 2.5H14.1667ZM16.6667 8.75H14.1667V11.25H16.6667V8.75ZM14.1667 7.91667C13.9457 7.91667 13.7337 8.00446 13.5774 8.16074C13.4211 8.31702 13.3333 8.52899 13.3333 8.75V11.25C13.3333 11.471 13.4211 11.683 13.5774 11.8393C13.7337 11.9955 13.9457 12.0833 14.1667 12.0833H16.6667C16.8877 12.0833 17.0996 11.9955 17.2559 11.8393C17.4122 11.683 17.5 11.471 17.5 11.25V8.75C17.5 8.52899 17.4122 8.31702 17.2559 8.16074C17.0996 8.00446 16.8877 7.91667 16.6667 7.91667H14.1667ZM16.6667 14.1667H14.1667V16.6667H16.6667V14.1667ZM14.1667 13.3333C13.9457 13.3333 13.7337 13.4211 13.5774 13.5774C13.4211 13.7337 13.3333 13.9457 13.3333 14.1667V16.6667C13.3333 16.8877 13.4211 17.0996 13.5774 17.2559C13.7337 17.4122 13.9457 17.5 14.1667 17.5H16.6667C16.8877 17.5 17.0996 17.4122 17.2559 17.2559C17.4122 17.0996 17.5 16.8877 17.5 16.6667V14.1667C17.5 13.9457 17.4122 13.7337 17.2559 13.5774C17.0996 13.4211 16.8877 13.3333 16.6667 13.3333H14.1667Z" fill="black"/>
</svg>
