<svg width="30" height="30" viewBox="0 0 30 30" fill="none" xmlns="http://www.w3.org/2000/svg">
<g clip-path="url(#clip0_319_396)">
<path d="M27.0917 23.1917C26.2882 22.4754 25.5846 21.6541 25.0001 20.7501C24.3619 19.5022 23.9795 18.1394 23.8751 16.7417V12.6251C23.8806 10.4298 23.0843 8.30798 21.6357 6.65839C20.1871 5.00881 18.186 3.94497 16.0084 3.66675V2.59175C16.0084 2.29669 15.8912 2.01373 15.6826 1.80509C15.4739 1.59646 15.191 1.47925 14.8959 1.47925C14.6009 1.47925 14.3179 1.59646 14.1093 1.80509C13.9006 2.01373 13.7834 2.29669 13.7834 2.59175V3.68341C11.6253 3.98169 9.64839 5.05196 8.21885 6.696C6.78932 8.34005 6.00402 10.4465 6.00841 12.6251V16.7417C5.90404 18.1394 5.52156 19.5022 4.88341 20.7501C4.30915 21.652 3.61691 22.4732 2.82508 23.1917C2.73619 23.2698 2.66495 23.366 2.6161 23.4737C2.56724 23.5815 2.5419 23.6984 2.54175 23.8167V24.9501C2.54175 25.1711 2.62955 25.3831 2.78583 25.5393C2.94211 25.6956 3.15407 25.7834 3.37508 25.7834H26.5417C26.7628 25.7834 26.9747 25.6956 27.131 25.5393C27.2873 25.3831 27.3751 25.1711 27.3751 24.9501V23.8167C27.3749 23.6984 27.3496 23.5815 27.3007 23.4737C27.2519 23.366 27.1806 23.2698 27.0917 23.1917ZM4.27508 24.1168C5.05042 23.3678 5.73308 22.5284 6.30841 21.6168C7.11226 20.1096 7.58127 18.4468 7.68341 16.7417V12.6251C7.65037 11.6484 7.81418 10.6751 8.16512 9.76314C8.51605 8.85113 9.04692 8.01907 9.72612 7.3165C10.4053 6.61393 11.2189 6.05522 12.1186 5.67364C13.0182 5.29206 13.9854 5.09542 14.9626 5.09542C15.9398 5.09542 16.907 5.29206 17.8066 5.67364C18.7062 6.05522 19.5198 6.61393 20.199 7.3165C20.8782 8.01907 21.4091 8.85113 21.76 9.76314C22.111 10.6751 22.2748 11.6484 22.2417 12.6251V16.7417C22.3439 18.4468 22.8129 20.1096 23.6167 21.6168C24.1921 22.5284 24.8747 23.3678 25.6501 24.1168H4.27508Z" fill="black"/>
<path d="M14.9999 28.5667C15.5249 28.5547 16.0286 28.3573 16.4221 28.0096C16.8156 27.6619 17.0734 27.1862 17.1499 26.6667H12.7666C12.8453 27.2003 13.1152 27.6872 13.526 28.0367C13.9368 28.3862 14.4606 28.5745 14.9999 28.5667Z" fill="black"/>
</g>
<defs>
<clipPath id="clip0_319_396">
<rect width="30" height="30" fill="white"/>
</clipPath>
</defs>
</svg>
