<svg width="263" height="233" viewBox="0 0 263 233" fill="none" xmlns="http://www.w3.org/2000/svg">
<g opacity="0.7">
<path d="M222.778 167.967C226.196 167.967 228.966 165.197 228.966 161.779C228.966 158.361 226.196 155.591 222.778 155.591C219.36 155.591 216.59 158.361 216.59 161.779C216.59 165.197 219.36 167.967 222.778 167.967Z" fill="#6C63FF"/>
<path d="M143.215 8.84039C145.656 8.84039 147.635 6.8614 147.635 4.42019C147.635 1.97899 145.656 0 143.215 0C140.773 0 138.794 1.97899 138.794 4.42019C138.794 6.8614 140.773 8.84039 143.215 8.84039Z" fill="#FF6584"/>
<path d="M46.8548 145.867C49.296 145.867 51.275 143.888 51.275 141.447C51.275 139.006 49.296 137.027 46.8548 137.027C44.4136 137.027 42.4346 139.006 42.4346 141.447C42.4346 143.888 44.4136 145.867 46.8548 145.867Z" fill="#FF6584"/>
<path d="M201.561 130.838C204.002 130.838 205.981 128.859 205.981 126.418C205.981 123.977 204.002 121.998 201.561 121.998C199.12 121.998 197.141 123.977 197.141 126.418C197.141 128.859 199.12 130.838 201.561 130.838Z" fill="#6C63FF"/>
<path d="M225.918 87.3882C228.359 87.3882 230.338 85.4093 230.338 82.968C230.338 80.5268 228.359 78.5479 225.918 78.5479C223.477 78.5479 221.498 80.5268 221.498 82.968C221.498 85.4093 223.477 87.3882 225.918 87.3882Z" fill="#6C63FF"/>
<path d="M217.279 45.7574C219.72 45.7574 221.699 43.7784 221.699 41.3372C221.699 38.896 219.72 36.917 217.279 36.917C214.837 36.917 212.858 38.896 212.858 41.3372C212.858 43.7784 214.837 45.7574 217.279 45.7574Z" fill="#E6E6E6"/>
<path d="M167.968 45.9693C170.409 45.9693 172.388 43.9903 172.388 41.5491C172.388 39.1079 170.409 37.1289 167.968 37.1289C165.526 37.1289 163.547 39.1079 163.547 41.5491C163.547 43.9903 165.526 45.9693 167.968 45.9693Z" fill="#CCCCCC"/>
<path d="M0.898844 94.5718C5.52724 94.8634 10.0206 96.2477 14.0107 98.6112C18.0008 100.975 21.374 104.25 23.8538 108.169C24.5487 109.28 25.4559 110.501 24.9749 111.868C24.8073 112.393 24.4668 112.845 24.009 113.15C23.5513 113.456 23.0033 113.597 22.4548 113.551C21.7709 113.404 21.1544 113.036 20.7004 112.504C20.2465 111.971 19.9803 111.305 19.9429 110.606C19.9054 109.907 20.0989 109.216 20.4934 108.638C20.8878 108.06 21.4614 107.629 22.1257 107.409C25.3358 106.04 28.5745 108.156 31.1893 109.845C37.1473 113.693 43.7006 117.173 50.9201 117.612C57.5998 118.018 64.7628 115.399 68.4782 109.606C69.1282 108.592 67.5143 107.656 66.8675 108.664C63.1827 114.409 55.7338 116.472 49.257 115.585C45.3974 114.976 41.6705 113.71 38.2378 111.843C36.4576 110.92 34.731 109.895 33.0393 108.819C31.4296 107.696 29.7234 106.718 27.9407 105.896C24.9677 104.675 21.0319 104.77 18.9552 107.582C17.0178 110.205 18.515 114.572 21.7555 115.31C22.4664 115.45 23.2009 115.412 23.8932 115.198C24.5856 114.984 25.214 114.602 25.7224 114.086C26.2307 113.57 26.6031 112.936 26.8059 112.24C27.0088 111.544 27.0359 110.809 26.8848 110.101C26.5615 108.556 25.3983 107.044 24.4979 105.782C21.7926 101.976 18.2681 98.8257 14.1838 96.5629C10.0996 94.3 5.55979 92.9822 0.898736 92.7065C-0.301143 92.6471 -0.298013 94.5125 0.898736 94.5718L0.898844 94.5718Z" fill="#CCCCCC"/>
<path d="M262.319 151.037C259.218 149.04 256.634 146.337 254.779 143.149C252.924 139.961 251.851 136.378 251.648 132.696C251.596 131.655 251.439 130.455 252.303 129.692C252.623 129.393 253.034 129.211 253.471 129.176C253.907 129.141 254.343 129.255 254.706 129.5C255.124 129.867 255.409 130.362 255.518 130.907C255.627 131.453 255.553 132.019 255.309 132.519C255.064 133.019 254.661 133.424 254.163 133.672C253.666 133.921 253.1 133.998 252.553 133.893C249.793 133.6 248.364 130.875 247.203 128.688C244.557 123.706 241.354 118.749 236.511 115.646C232.029 112.775 226.039 111.817 221.213 114.4C220.369 114.852 221.127 116.128 221.967 115.678C226.753 113.117 232.726 114.571 236.88 117.699C239.324 119.618 241.422 121.941 243.082 124.568C243.961 125.9 244.763 127.28 245.52 128.684C246.203 130.088 247.009 131.428 247.928 132.69C249.52 134.691 252.29 136.15 254.822 135.002C255.386 134.71 255.874 134.29 256.247 133.776C256.62 133.261 256.868 132.667 256.97 132.04C257.072 131.413 257.026 130.771 256.835 130.165C256.645 129.559 256.315 129.005 255.873 128.55C255.434 128.177 254.909 127.919 254.345 127.799C253.781 127.679 253.197 127.7 252.644 127.862C252.09 128.023 251.586 128.32 251.175 128.724C250.765 129.128 250.461 129.628 250.291 130.179C250.031 131.474 250.025 132.807 250.275 134.104C250.679 137.796 251.905 141.35 253.865 144.504C255.824 147.659 258.466 150.334 261.596 152.332C262.407 152.839 263.127 151.542 262.319 151.037L262.319 151.037Z" fill="#CCCCCC"/>
<path d="M120.036 78.0708C118.813 77.3967 117.794 76.4842 117.062 75.4078C116.331 74.3315 115.908 73.1221 115.828 71.8788C115.807 71.5273 115.745 71.1224 116.086 70.8647C116.212 70.7637 116.374 70.7023 116.546 70.6905C116.719 70.6787 116.89 70.7173 117.033 70.7999C117.198 70.9239 117.311 71.0909 117.354 71.2751C117.397 71.4593 117.368 71.6505 117.271 71.8192C117.175 71.9879 117.016 72.1247 116.82 72.2085C116.623 72.2923 116.4 72.3185 116.185 72.2831C115.096 72.184 114.533 71.2641 114.075 70.5259C113.031 68.8439 111.768 67.1703 109.858 66.1227C108.091 65.1535 105.729 64.8302 103.826 65.7021C103.493 65.8547 103.792 66.2854 104.123 66.1336C106.01 65.2689 108.366 65.7599 110.004 66.8157C110.968 67.4636 111.795 68.248 112.45 69.1349C112.796 69.5845 113.112 70.0505 113.411 70.5243C113.68 70.9983 113.998 71.4509 114.361 71.8769C114.988 72.5523 116.081 73.045 117.079 72.6574C117.302 72.5589 117.494 72.4171 117.641 72.2434C117.788 72.0698 117.886 71.8691 117.926 71.6574C117.966 71.4457 117.948 71.2289 117.873 71.0243C117.798 70.8197 117.668 70.633 117.494 70.479C117.32 70.3532 117.113 70.2661 116.891 70.2255C116.669 70.185 116.438 70.1923 116.22 70.2469C116.002 70.3014 115.803 70.4014 115.641 70.5379C115.479 70.6745 115.36 70.8432 115.293 71.0292C115.19 71.4663 115.188 71.9164 115.286 72.3542C115.445 73.6005 115.929 74.8004 116.702 75.8654C117.474 76.9305 118.516 77.8336 119.751 78.5082C120.07 78.6791 120.354 78.2413 120.036 78.0708L120.036 78.0708Z" fill="#CCCCCC"/>
<path d="M109.79 28.6473C106.109 28.4154 102.535 27.3144 99.3619 25.4346C96.1884 23.5548 93.5056 20.9497 91.5333 17.8328C90.9805 16.9492 90.259 15.9782 90.6416 14.8906C90.7749 14.4735 91.0457 14.1141 91.4098 13.8709C91.7739 13.6278 92.2097 13.5153 92.6459 13.5519C93.1899 13.669 93.6802 13.9618 94.0413 14.3852C94.4023 14.8085 94.614 15.3389 94.6438 15.8945C94.6736 16.4501 94.5197 17.0001 94.206 17.4596C93.8922 17.9191 93.436 18.2626 92.9077 18.4372C90.3546 19.5262 87.7787 17.8432 85.699 16.4999C80.9602 13.4392 75.7481 10.6713 70.006 10.3225C64.6934 9.99979 58.9963 12.0828 56.0413 16.69C55.5243 17.496 56.808 18.2408 57.3224 17.4387C60.253 12.8696 66.1775 11.2286 71.3288 11.9348C74.3985 12.4192 77.3628 13.4256 80.093 14.9103C81.5088 15.6451 82.882 16.4596 84.2274 17.3159C85.5077 18.2092 86.8648 18.9872 88.2827 19.6406C90.6473 20.6119 93.7776 20.5361 95.4293 18.2997C95.7796 17.7697 96.0011 17.1652 96.0761 16.5343C96.151 15.9035 96.0773 15.2638 95.8609 14.6665C95.6444 14.0693 95.2913 13.5309 94.8296 13.0945C94.3679 12.6581 93.8106 12.3357 93.2021 12.1533C92.6367 12.0418 92.0525 12.0724 91.5018 12.2423C90.9512 12.4121 90.4513 12.716 90.047 13.1266C89.6427 13.5372 89.3466 14.0417 89.1852 14.5949C89.0239 15.1481 89.0023 15.7327 89.1225 16.2963C89.526 17.5539 90.1709 18.7208 91.021 19.7315C93.1726 22.7584 95.9758 25.2639 99.2242 27.0637C102.473 28.8635 106.083 29.9116 109.79 30.1309C110.745 30.1781 110.742 28.6944 109.79 28.6473L109.79 28.6473Z" fill="#CCCCCC"/>
<path d="M113.157 75.6479H108.737V90.1714H113.157V75.6479Z" fill="#CCCCCC"/>
<path d="M41.6878 65.5148L44.7598 62.4429L34.6663 52.3494L31.5944 55.4213L41.6878 65.5148Z" fill="#B3B3B3"/>
<path d="M165.969 96.0345L169.041 99.1064L179.134 89.013L176.063 85.9411L165.969 96.0345Z" fill="#B3B3B3"/>
<path d="M28.2762 178.181L31.3481 181.253L41.4416 171.16L38.3697 168.088L28.2762 178.181Z" fill="#FF6584"/>
<path d="M86.9673 63.7031C86.7736 63.7025 86.588 63.6252 86.451 63.4881C86.3141 63.3511 86.2369 63.1654 86.2364 62.9717C86.2355 62.9141 86.242 62.8567 86.2557 62.8008L90.0408 46.1279C90.0695 46.0023 90.1306 45.8865 90.2181 45.792C90.3056 45.6975 90.4164 45.6276 90.5394 45.5893C90.6624 45.5511 90.7932 45.5458 90.9189 45.574C91.0445 45.6022 91.1606 45.6629 91.2554 45.7501L103.804 57.3708C103.899 57.4583 103.969 57.5691 104.007 57.6921C104.045 57.815 104.05 57.9458 104.022 58.0714C103.994 58.197 103.933 58.313 103.846 58.4078C103.759 58.5026 103.648 58.5729 103.525 58.6116L87.1873 63.6701C87.116 63.6919 87.0419 63.703 86.9673 63.7031Z" fill="#3F3D56" fill-opacity="0.3"/>
<path d="M97.2307 51.5148L89.3481 49.9461L89.4722 49.3987L96.4409 50.7841L97.2307 51.5148Z" fill="white"/>
<path d="M103.438 57.2625L88.3672 54.2636L88.4912 53.7134L102.648 56.5288L103.438 57.2625Z" fill="white"/>
<path d="M98.0452 60.1296L96.914 60.4792L87.3867 58.5834L87.5108 58.0332L98.0452 60.1296Z" fill="white"/>
</g>
<path d="M189.875 156.5C189.875 124.824 164.176 99.125 132.5 99.125C100.824 99.125 75.125 124.824 75.125 156.5C75.125 188.176 100.824 213.875 132.5 213.875C164.176 213.875 189.875 188.176 189.875 156.5Z" stroke="#FFB300" stroke-width="10" stroke-miterlimit="10"/>
<path d="M165.969 137.375L132.539 175.625L118.21 161.281M113.36 175.625L99.0312 161.281M147.355 137.375L131.95 155.006" stroke="#FFB300" stroke-width="10" stroke-linecap="round" stroke-linejoin="round"/>
</svg>
