<svg width="20" height="20" viewBox="0 0 20 20" fill="none" xmlns="http://www.w3.org/2000/svg">
<path d="M16.367 10.475V9.51876L17.567 8.46876C17.7882 8.27379 17.9333 8.0069 17.9768 7.71526C18.0203 7.42362 17.9592 7.126 17.8045 6.87501L16.3295 4.37501C16.2199 4.18517 16.0623 4.0275 15.8725 3.9178C15.6827 3.8081 15.4674 3.75024 15.2482 3.75001C15.1124 3.74897 14.9773 3.77008 14.8482 3.81251L13.3295 4.32501C13.0673 4.15076 12.7937 3.99417 12.5107 3.85626L12.192 2.28126C12.1348 1.99351 11.9783 1.73504 11.7498 1.55107C11.5212 1.36711 11.2353 1.26939 10.942 1.27501H8.01698C7.72366 1.26939 7.43772 1.36711 7.20919 1.55107C6.98067 1.73504 6.82413 1.99351 6.76698 2.28126L6.44823 3.85626C6.16319 3.99414 5.88758 4.15073 5.62323 4.32501L4.13573 3.78751C4.00529 3.75353 3.87021 3.74086 3.73573 3.75001C3.51653 3.75024 3.30124 3.8081 3.11146 3.9178C2.92168 4.0275 2.76408 4.18517 2.65448 4.37501L1.17948 6.87501C1.0336 7.12563 0.979386 7.41917 1.02613 7.70536C1.07288 7.99155 1.21768 8.25259 1.43573 8.44376L2.61698 9.52501V10.4813L1.43573 11.5313C1.21152 11.7238 1.06276 11.9895 1.01585 12.2812C0.968943 12.573 1.02691 12.8719 1.17948 13.125L2.65448 15.625C2.76408 15.8148 2.92168 15.9725 3.11146 16.0822C3.30124 16.1919 3.51653 16.2498 3.73573 16.25C3.87157 16.2511 4.00668 16.2299 4.13573 16.1875L5.65448 15.675C5.91669 15.8493 6.19021 16.0059 6.47323 16.1438L6.79198 17.7188C6.84913 18.0065 7.00567 18.265 7.23419 18.4489C7.46272 18.6329 7.74866 18.7306 8.04198 18.725H10.992C11.2853 18.7306 11.5712 18.6329 11.7998 18.4489C12.0283 18.265 12.1848 18.0065 12.242 17.7188L12.5607 16.1438C12.8458 16.0059 13.1214 15.8493 13.3857 15.675L14.8982 16.1875C15.0273 16.2299 15.1624 16.2511 15.2982 16.25C15.5174 16.2498 15.7327 16.1919 15.9225 16.0822C16.1123 15.9725 16.2699 15.8148 16.3795 15.625L17.8045 13.125C17.9504 12.8744 18.0046 12.5809 17.9578 12.2947C17.9111 12.0085 17.7663 11.7474 17.5482 11.5563L16.367 10.475ZM15.2482 15L13.1045 14.275C12.6026 14.7001 12.0291 15.0324 11.4107 15.2563L10.967 17.5H8.01698L7.57323 15.2813C6.95974 15.051 6.3893 14.7193 5.88573 14.3L3.73573 15L2.26073 12.5L3.96073 11C3.84516 10.353 3.84516 9.69072 3.96073 9.04376L2.26073 7.50001L3.73573 5.00001L5.87948 5.72501C6.38131 5.29994 6.95486 4.96767 7.57323 4.74376L8.01698 2.50001H10.967L11.4107 4.71876C12.0242 4.94902 12.5947 5.28072 13.0982 5.70001L15.2482 5.00001L16.7232 7.50001L15.0232 9.00001C15.1388 9.64697 15.1388 10.3093 15.0232 10.9563L16.7232 12.5L15.2482 15Z" fill="#424242"/>
<path d="M10 13.75C9.25832 13.75 8.5333 13.5301 7.91661 13.118C7.29993 12.706 6.81928 12.1203 6.53545 11.4351C6.25162 10.7498 6.17736 9.99584 6.32206 9.26841C6.46675 8.54098 6.8239 7.8728 7.34835 7.34835C7.8728 6.8239 8.54098 6.46675 9.26841 6.32206C9.99584 6.17736 10.7498 6.25162 11.4351 6.53545C12.1203 6.81928 12.706 7.29993 13.118 7.91661C13.5301 8.5333 13.75 9.25832 13.75 10C13.755 10.4939 13.6614 10.9837 13.4748 11.441C13.2881 11.8982 13.0121 12.3136 12.6628 12.6628C12.3136 13.0121 11.8982 13.2881 11.441 13.4748C10.9837 13.6614 10.4939 13.755 10 13.75ZM10 7.5C9.66959 7.4923 9.34105 7.55171 9.03426 7.67462C8.72747 7.79753 8.44879 7.9814 8.2151 8.2151C7.9814 8.44879 7.79753 8.72747 7.67462 9.03426C7.55171 9.34105 7.4923 9.66959 7.5 10C7.4923 10.3304 7.55171 10.6589 7.67462 10.9657C7.79753 11.2725 7.9814 11.5512 8.2151 11.7849C8.44879 12.0186 8.72747 12.2025 9.03426 12.3254C9.34105 12.4483 9.66959 12.5077 10 12.5C10.3304 12.5077 10.6589 12.4483 10.9657 12.3254C11.2725 12.2025 11.5512 12.0186 11.7849 11.7849C12.0186 11.5512 12.2025 11.2725 12.3254 10.9657C12.4483 10.6589 12.5077 10.3304 12.5 10C12.5077 9.66959 12.4483 9.34105 12.3254 9.03426C12.2025 8.72747 12.0186 8.44879 11.7849 8.2151C11.5512 7.9814 11.2725 7.79753 10.9657 7.67462C10.6589 7.55171 10.3304 7.4923 10 7.5Z" fill="#424242"/>
</svg>
