<svg width="22" height="21" viewBox="0 0 22 21" fill="none" xmlns="http://www.w3.org/2000/svg">
<path d="M14.1793 0.195466L21.1436 6.92761C21.2109 6.99264 21.2644 7.07055 21.3009 7.1567C21.3375 7.24284 21.3563 7.33546 21.3563 7.42904C21.3563 7.52261 21.3375 7.61523 21.3009 7.70138C21.2644 7.78752 21.2109 7.86543 21.1436 7.93047L14.1793 14.6626C14.1156 14.7253 14.0402 14.7749 13.9573 14.8083C13.8745 14.8418 13.7858 14.8585 13.6964 14.8576C13.5117 14.8576 13.3346 14.7842 13.204 14.6536C13.0734 14.523 13 14.3459 13 14.1612V10.6883C6.77857 10.939 4.16 14.4212 4.04857 14.5698C3.95992 14.6864 3.83756 14.7731 3.69804 14.8179C3.55853 14.8628 3.40861 14.8636 3.26857 14.8205C3.12889 14.7755 3.00699 14.6875 2.92028 14.5691C2.83357 14.4507 2.78647 14.3079 2.78571 14.1612C2.78571 6.71404 8.905 4.42975 13 4.19761V0.696895C13.0003 0.559929 13.041 0.426094 13.117 0.312132C13.1929 0.19817 13.3008 0.10914 13.4271 0.0561802C13.5522 0.00224417 13.6905 -0.0133116 13.8244 0.011488C13.9583 0.0362877 14.0818 0.100324 14.1793 0.195466ZM14.3929 9.98261V12.499L19.6579 7.42904L14.3929 2.34047V4.87547C14.3905 5.05942 14.3163 5.23517 14.1862 5.36526C14.0561 5.49534 13.8804 5.56949 13.6964 5.57189C12.7957 5.57189 5.47857 5.77618 4.32714 12.3319C6.99773 10.2518 10.3132 9.17401 13.6964 9.28618C13.8804 9.28858 14.0561 9.36273 14.1862 9.49282C14.3163 9.62291 14.3905 9.79865 14.3929 9.98261ZM18.3142 15.0647C18.4441 14.9345 18.6197 14.8602 18.8036 14.8576C18.9875 14.86 19.1633 14.9342 19.2934 15.0642C19.4234 15.1943 19.4976 15.3701 19.5 15.554V16.0183C19.5 17.1881 19.0353 18.31 18.2081 19.1372C17.381 19.9643 16.2591 20.429 15.0893 20.429H4.41071C3.24092 20.429 2.11904 19.9643 1.29187 19.1372C0.464699 18.31 0 17.1881 0 16.0183V5.33975C0 4.16996 0.464699 3.04808 1.29187 2.22091C2.11904 1.39374 3.24092 0.929037 4.41071 0.929037H8.58929C8.77399 0.929037 8.95113 1.00241 9.08173 1.13302C9.21234 1.26362 9.28571 1.44076 9.28571 1.62547C9.28571 1.81017 9.21234 1.98731 9.08173 2.11792C8.95113 2.24852 8.77399 2.32189 8.58929 2.32189H4.41071C3.61108 2.32434 2.8449 2.64308 2.27947 3.20851C1.71404 3.77394 1.39531 4.54012 1.39286 5.33975V16.0183C1.39531 16.818 1.71404 17.5841 2.27947 18.1496C2.8449 18.715 3.61108 19.0337 4.41071 19.0362H15.0893C15.8889 19.0337 16.6551 18.715 17.2205 18.1496C17.786 17.5841 18.1047 16.818 18.1071 16.0183V15.554C18.1098 15.3702 18.1841 15.1946 18.3142 15.0647Z" fill="white"/>
</svg>
