<svg width="13" height="14" viewBox="0 0 13 14" fill="none" xmlns="http://www.w3.org/2000/svg">
<path fill-rule="evenodd" clip-rule="evenodd" d="M0.375011 5.49927C0.318875 5.49929 0.263459 5.51191 0.212849 5.5362C0.162238 5.56048 0.117723 5.59582 0.0825849 5.6396C0.0474466 5.68338 0.022581 5.73448 0.00982067 5.78915C-0.00293962 5.84382 -0.00326919 5.90065 0.00885624 5.95546L1.24838 11.5333C1.3409 11.9499 1.57272 12.3225 1.90557 12.5896C2.23841 12.8567 2.65239 13.0023 3.07915 13.0024H7.42499C7.85175 13.0023 8.26573 12.8567 8.59858 12.5896C8.93142 12.3225 9.16324 11.9499 9.25576 11.5333L9.35406 11.0906C9.92799 11.198 10.5212 11.0781 11.0084 10.7563C11.4956 10.4345 11.8387 9.93603 11.9653 9.36603C12.0919 8.79603 11.992 8.19914 11.6868 7.70138C11.3816 7.20363 10.8949 6.84394 10.3295 6.69827L10.4953 5.95546C10.5074 5.90065 10.5071 5.84382 10.4943 5.78915C10.4816 5.73448 10.4567 5.68338 10.4216 5.6396C10.3864 5.59582 10.3419 5.56048 10.2913 5.5362C10.2407 5.51191 10.1853 5.49929 10.1291 5.49927H0.375011ZM9.75397 10.3763C9.67457 10.3763 9.59529 10.3701 9.51687 10.3576L10.1674 7.43283C10.5144 7.53334 10.8136 7.75561 11.0099 8.05886C11.2063 8.36211 11.2868 8.726 11.2365 9.08377C11.1863 9.44155 11.0087 9.7692 10.7364 10.0066C10.4641 10.244 10.1153 10.3753 9.75397 10.3763ZM1.98069 11.3705L0.842458 6.24958H9.66168L8.52345 11.3705C8.46797 11.6205 8.32889 11.8441 8.12918 12.0044C7.92947 12.1647 7.68107 12.2521 7.42499 12.2521H3.07915C2.82307 12.2521 2.57467 12.1647 2.37496 12.0044C2.17525 11.8441 2.03617 11.6205 1.98069 11.3705V11.3705Z" fill="#BE7C5E"/>
<path d="M3.30142 1.59776L3.29917 1.60076L3.28866 1.61502C3.23421 1.69024 3.18314 1.76785 3.1356 1.84761C3.09604 1.91203 3.0607 1.97895 3.02981 2.04795C3.0103 2.09297 3.00429 2.11698 3.00204 2.12523V2.12823C3.01052 2.1946 3.03386 2.25821 3.07032 2.31431C3.1266 2.4141 3.20388 2.5184 3.30142 2.6482L3.30892 2.65721C3.39746 2.77576 3.50401 2.91757 3.58654 3.06463C3.67058 3.21469 3.75161 3.40602 3.75161 3.62361C3.75161 3.76467 3.70284 3.89973 3.66232 3.99427C3.61828 4.09455 3.56764 4.1918 3.51076 4.28539C3.45153 4.38356 3.3882 4.47918 3.32093 4.57201L3.30742 4.59077L3.30367 4.59678L3.30217 4.59828C3.24257 4.67797 3.15375 4.73073 3.05525 4.74494C2.95676 4.75916 2.85665 4.73366 2.77695 4.67406C2.69725 4.61446 2.64449 4.52564 2.63028 4.42714C2.61607 4.32864 2.64157 4.22853 2.70117 4.14884L2.70342 4.14583L2.71392 4.13158C2.76839 4.05637 2.81946 3.97876 2.86699 3.89898C2.9071 3.83488 2.94246 3.76792 2.97278 3.69865C2.99229 3.65363 2.99829 3.62962 3.00054 3.62136C2.99273 3.55401 2.96964 3.48934 2.93301 3.43228C2.86277 3.31626 2.78534 3.20475 2.70117 3.09839L2.69366 3.08939C2.59246 2.95969 2.49973 2.8236 2.41605 2.68197C2.31385 2.51294 2.25699 2.32041 2.25098 2.12298C2.25098 1.98192 2.29975 1.84686 2.34026 1.75232C2.38453 1.64878 2.44081 1.54674 2.49183 1.4612C2.55106 1.36304 2.61439 1.26741 2.68166 1.17458L2.70042 1.14832C2.76002 1.06862 2.84883 1.01586 2.94733 1.00165C3.04583 0.987438 3.14594 1.01294 3.22564 1.07254C3.30534 1.13214 3.35809 1.22095 3.37231 1.31945C3.38652 1.41795 3.36102 1.51806 3.30142 1.59776V1.59776ZM5.55237 1.59776L5.55012 1.60076L5.53962 1.61502C5.48517 1.69024 5.43409 1.76785 5.38655 1.84761C5.34699 1.91203 5.31165 1.97895 5.28076 2.04795C5.26125 2.09297 5.25525 2.11698 5.25299 2.12523V2.12823C5.26147 2.1946 5.28481 2.25821 5.32127 2.31431C5.37755 2.4141 5.45483 2.5184 5.55237 2.6482L5.55987 2.65721C5.64841 2.77576 5.75496 2.91757 5.83749 3.06463C5.92153 3.21469 6.00256 3.40602 6.00256 3.62361C6.00256 3.76467 5.95379 3.89973 5.91327 3.99427C5.86923 4.09455 5.8186 4.1918 5.76171 4.28539C5.70248 4.38356 5.63915 4.47918 5.57188 4.57201L5.55837 4.59077L5.55462 4.59678L5.55312 4.59828C5.49352 4.67797 5.4047 4.73073 5.30621 4.74494C5.20771 4.75916 5.1076 4.73366 5.0279 4.67406C4.9482 4.61446 4.89544 4.52564 4.88123 4.42714C4.86702 4.32864 4.89252 4.22853 4.95212 4.14884L4.95437 4.14583L4.96487 4.13158C5.01934 4.05637 5.07041 3.97876 5.11794 3.89898C5.15806 3.83488 5.19342 3.76792 5.22373 3.69865C5.24324 3.65363 5.24924 3.62962 5.25149 3.62136C5.24368 3.55401 5.22059 3.48934 5.18397 3.43228C5.11372 3.31626 5.03629 3.20475 4.95212 3.09839L4.94461 3.08939C4.84341 2.95969 4.75068 2.8236 4.667 2.68197C4.5648 2.51294 4.50795 2.32041 4.50193 2.12298C4.50193 1.98192 4.5507 1.84686 4.59122 1.75232C4.63548 1.64878 4.69176 1.54674 4.74278 1.4612C4.80201 1.36304 4.86534 1.26741 4.93261 1.17458L4.95137 1.14832C5.01097 1.06862 5.09979 1.01586 5.19828 1.00165C5.29678 0.987438 5.39689 1.01294 5.47659 1.07254C5.55629 1.13214 5.60905 1.22095 5.62326 1.31945C5.63747 1.41795 5.61197 1.51806 5.55237 1.59776V1.59776ZM7.80332 1.59776L7.80107 1.60076L7.79057 1.61502C7.73604 1.69018 7.68497 1.7678 7.6375 1.84761C7.59796 1.91204 7.56262 1.97896 7.53171 2.04795C7.5122 2.09297 7.5062 2.11698 7.50395 2.12523V2.12823C7.51243 2.1946 7.53576 2.25821 7.57222 2.31431C7.6285 2.4141 7.70578 2.5184 7.80332 2.6482L7.81083 2.65721C7.89936 2.77576 8.00591 2.91757 8.08844 3.06463C8.17248 3.21469 8.25351 3.40602 8.25351 3.62361C8.25351 3.76467 8.20474 3.89973 8.16422 3.99427C8.12041 4.09466 8.06977 4.19193 8.01266 4.28539C7.95372 4.38357 7.89064 4.4792 7.82358 4.57201L7.80933 4.59077L7.80557 4.59678L7.80407 4.59828C7.74447 4.67797 7.65565 4.73073 7.55716 4.74494C7.45866 4.75916 7.35855 4.73366 7.27885 4.67406C7.19915 4.61446 7.1464 4.52564 7.13218 4.42714C7.11797 4.32864 7.14347 4.22853 7.20307 4.14884L7.20532 4.14583L7.21582 4.13158C7.27029 4.05637 7.32136 3.97876 7.36889 3.89898C7.40901 3.83488 7.44437 3.76792 7.47468 3.69865C7.49419 3.65363 7.50019 3.62962 7.50245 3.62136C7.49464 3.55401 7.47154 3.48934 7.43492 3.43228C7.36467 3.31626 7.28724 3.20475 7.20307 3.09839L7.19557 3.08939C7.09436 2.95969 7.00163 2.8236 6.91795 2.68197C6.81575 2.51294 6.7589 2.32041 6.75288 2.12298C6.75288 1.98192 6.80165 1.84686 6.84217 1.75232C6.88644 1.64878 6.94271 1.54674 6.99373 1.4612C7.05296 1.36304 7.11629 1.26741 7.18356 1.17458L7.20232 1.14832C7.26192 1.06862 7.35074 1.01586 7.44923 1.00165C7.54773 0.987438 7.64784 1.01294 7.72754 1.07254C7.80724 1.13214 7.86 1.22095 7.87421 1.31945C7.88842 1.41795 7.86292 1.51806 7.80332 1.59776V1.59776Z" fill="#BE7C5E"/>
</svg>
