<svg width="16" height="16" viewBox="0 0 16 16" fill="none" xmlns="http://www.w3.org/2000/svg">
<path d="M6.4129 7.01008C6.38182 6.97091 6.34322 6.93835 6.29937 6.91432C6.25552 6.89028 6.20731 6.87526 6.15757 6.87014C6.10783 6.86501 6.05757 6.86989 6.00974 6.88448C5.96191 6.89906 5.91749 6.92307 5.87907 6.95508C5.84066 6.98709 5.80903 7.02646 5.78606 7.07088C5.76309 7.11529 5.74923 7.16385 5.7453 7.2137C5.74137 7.26355 5.74745 7.31368 5.76318 7.36114C5.77891 7.40861 5.80398 7.45244 5.8369 7.49008L7.51165 9.50008L5.8369 11.5101C5.77605 11.5868 5.74761 11.6842 5.75764 11.7816C5.76767 11.879 5.81539 11.9686 5.8906 12.0312C5.9658 12.0939 6.06254 12.1247 6.16013 12.117C6.25773 12.1093 6.34844 12.0638 6.4129 11.9901L7.9999 10.0858L9.5869 11.9908C9.65065 12.0672 9.74214 12.1151 9.84123 12.1241C9.89029 12.1285 9.93975 12.1232 9.98677 12.1085C10.0338 12.0938 10.0775 12.07 10.1153 12.0385C10.1531 12.0069 10.1843 11.9682 10.2072 11.9245C10.2301 11.8809 10.2441 11.8332 10.2485 11.7841C10.2529 11.7351 10.2477 11.6856 10.233 11.6386C10.2183 11.5916 10.1945 11.5479 10.1629 11.5101L8.48815 9.50008L10.1629 7.49008C10.2238 7.41339 10.2522 7.31594 10.2422 7.21856C10.2321 7.12118 10.1844 7.03158 10.1092 6.96891C10.034 6.90624 9.93727 6.87546 9.83967 6.88315C9.74208 6.89084 9.65136 6.9364 9.5869 7.01008L7.9999 8.91433L6.4129 7.00933V7.01008Z" fill="#FC1B95"/>
<path d="M12.5 12.5V5.375L9.125 2H5C4.60218 2 4.22064 2.15804 3.93934 2.43934C3.65804 2.72064 3.5 3.10218 3.5 3.5V12.5C3.5 12.8978 3.65804 13.2794 3.93934 13.5607C4.22064 13.842 4.60218 14 5 14H11C11.3978 14 11.7794 13.842 12.0607 13.5607C12.342 13.2794 12.5 12.8978 12.5 12.5ZM9.125 4.25C9.125 4.54837 9.24353 4.83452 9.4545 5.0455C9.66548 5.25647 9.95163 5.375 10.25 5.375H11.75V12.5C11.75 12.6989 11.671 12.8897 11.5303 13.0303C11.3897 13.171 11.1989 13.25 11 13.25H5C4.80109 13.25 4.61032 13.171 4.46967 13.0303C4.32902 12.8897 4.25 12.6989 4.25 12.5V3.5C4.25 3.30109 4.32902 3.11032 4.46967 2.96967C4.61032 2.82902 4.80109 2.75 5 2.75H9.125V4.25Z" fill="#FC1B95"/>
</svg>
