<svg width="16" height="16" viewBox="0 0 16 16" fill="none" xmlns="http://www.w3.org/2000/svg">
<path fill-rule="evenodd" clip-rule="evenodd" d="M7.4289 1.19995C8.0777 1.19995 8.60282 1.74059 8.60282 2.38939C8.60282 3.03803 8.0777 3.57867 7.4289 3.57867C6.7801 3.57867 6.23946 3.03803 6.23946 2.38939C6.23946 1.74059 6.78026 1.19995 7.4289 1.19995ZM7.50618 3.68683C7.95258 3.67291 8.2977 3.95067 8.4793 4.24299L9.71498 6.29739L11.8775 7.20875C12.4953 7.47115 12.2019 8.28987 11.5068 8.10459C11.482 8.08769 11.4562 8.0722 11.4295 8.05819L9.97754 11.271C9.97754 11.271 10.4409 12.3369 11.0279 13.5419C11.5995 14.762 10.2092 15.2873 9.69946 14.1596L9.18986 13.0166L8.44842 14.6385L8.13946 14.4995L9.00442 12.615L7.55242 9.44859C7.49066 9.46395 7.4289 9.44859 7.35162 9.44859C7.35162 9.44859 5.66794 13.2792 5.20442 14.2833C4.75658 15.2873 3.42826 14.6849 3.8761 13.6961C4.3241 12.7076 6.45578 7.90379 6.45578 7.90379L4.8713 7.92971C4.6313 7.93179 4.57386 7.89355 4.55866 7.71371C4.53418 7.23851 4.49226 6.12043 4.60218 5.60219C4.74394 4.93419 4.82858 4.19899 5.29722 3.98027C5.76602 3.76155 6.5793 4.36651 6.5793 4.36651C6.70282 3.96491 7.08906 3.68683 7.50618 3.68683ZM8.46378 6.09643V7.95035L9.79226 10.8544L11.1206 7.93483L9.18986 7.13163C9.09706 7.08523 9.01994 7.02347 8.95802 6.93083L8.46378 6.09643Z" fill="#220884"/>
</svg>
