<svg width="16" height="16" viewBox="0 0 16 16" fill="none" xmlns="http://www.w3.org/2000/svg">
<path fill-rule="evenodd" clip-rule="evenodd" d="M14.98 2.5C14.9932 2.33366 14.9999 2.16686 15 2V1H13.25C11.9517 1.00027 10.6885 1.42142 9.64985 2.2003C8.61117 2.97918 7.85298 4.0738 7.489 5.32C6.92863 4.59716 6.21017 4.01224 5.38871 3.61009C4.56725 3.20794 3.66461 2.99924 2.75 3H1V4C1 5.5913 1.63214 7.11742 2.75736 8.24264C3.88258 9.36786 5.4087 10 7 10H7.25V14.25C7.25 14.4489 7.32902 14.6397 7.46967 14.7803C7.61032 14.921 7.80109 15 8 15C8.19891 15 8.38968 14.921 8.53033 14.7803C8.67098 14.6397 8.75 14.4489 8.75 14.25V8H9C10.5049 8.00022 11.9549 7.43491 13.0626 6.41617C14.1702 5.39744 14.8546 3.99966 14.98 2.5ZM8.777 6.5C8.90001 5.39981 9.42424 4.38356 10.2495 3.64561C11.0747 2.90766 12.143 2.49979 13.25 2.5H13.473C13.35 3.60019 12.8258 4.61644 12.0005 5.35439C11.1753 6.09234 10.107 6.50021 9 6.5H8.777ZM2.75 4.5C3.85705 4.49979 4.92533 4.90766 5.75054 5.64561C6.57576 6.38356 7.09999 7.39981 7.223 8.5H7C5.89295 8.50021 4.82467 8.09234 3.99946 7.35439C3.17424 6.61644 2.65001 5.60019 2.527 4.5H2.75Z" fill="#0FD32E"/>
</svg>
