<svg width="16" height="16" viewBox="0 0 16 16" fill="none" xmlns="http://www.w3.org/2000/svg">
<path d="M9.41699 12.0012L9.57128 12.0001C10.2684 12.0001 10.6341 12.2892 11.0867 12.9738L11.3113 13.3212C11.4867 13.5812 11.5964 13.6898 11.7341 13.7469C11.9816 13.8486 12.1867 13.7984 12.9393 13.4361L13.1696 13.3241C13.6404 13.0932 13.9616 12.9606 14.3239 12.8698C14.3785 12.8561 14.4353 12.8534 14.491 12.8617C14.5467 12.8699 14.6002 12.8891 14.6485 12.9181C14.6968 12.9471 14.7389 12.9853 14.7724 13.0305C14.8059 13.0758 14.8302 13.1272 14.8439 13.1818C14.8575 13.2364 14.8603 13.2932 14.852 13.3489C14.8437 13.4046 14.8245 13.4581 14.7955 13.5064C14.7666 13.5547 14.7284 13.5968 14.6831 13.6303C14.6379 13.6639 14.5865 13.6881 14.5319 13.7018C14.3067 13.7578 14.0901 13.8389 13.8079 13.9692L13.1456 14.2875C12.2496 14.7104 11.9456 14.7612 11.4079 14.5389C11.0507 14.3921 10.8479 14.1789 10.5507 13.7246L10.4393 13.5509C10.1181 13.0452 9.94557 12.8789 9.63928 12.8595L9.57071 12.8572C9.25757 12.8572 9.19585 12.8961 8.00499 13.7801C7.00957 14.5189 6.25014 14.8715 5.285 14.8715C4.10785 14.8715 2.99814 14.6555 1.96042 14.2229L3.60728 13.8424C4.14671 13.9566 4.70557 14.0144 5.28442 14.0144C6.02157 14.0144 6.63299 13.7304 7.49414 13.0915L8.15699 12.6024C8.88328 12.0744 9.04499 12.0092 9.41699 12.0012ZM13.0153 1.84122C13.4744 2.30049 13.7322 2.92328 13.7322 3.57265C13.7322 4.22202 13.4744 4.84481 13.0153 5.30408L12.4233 5.89608C13.0816 6.69722 13.0576 7.54579 12.4461 8.15951L10.7313 9.87494C10.6508 9.95526 10.5417 10.0003 10.428 10.0002C10.3143 10.0001 10.2053 9.95484 10.125 9.87436C10.0447 9.79389 9.99961 9.6848 9.99971 9.5711C9.99982 9.4574 10.0451 9.3484 10.1256 9.26808L11.8387 7.55436C12.1164 7.27665 12.1484 6.93151 11.8159 6.50408L5.76271 12.5578C5.5923 12.7281 5.37747 12.8471 5.14271 12.9012L1.66842 13.7035C1.59754 13.7199 1.52365 13.7181 1.45369 13.698C1.38374 13.678 1.32004 13.6405 1.26859 13.5891C1.21714 13.5376 1.17964 13.4739 1.15962 13.404C1.13959 13.334 1.13771 13.2601 1.15414 13.1892L1.95585 9.71493C2.00988 9.47997 2.12888 9.26493 2.29928 9.09436L9.55185 1.84122C9.77922 1.61384 10.0492 1.43347 10.3462 1.31042C10.6433 1.18736 10.9617 1.12402 11.2833 1.12402C11.6048 1.12402 11.9232 1.18736 12.2203 1.31042C12.5174 1.43347 12.7873 1.61384 13.0147 1.84122H13.0153ZM10.1581 2.44693L2.905 9.70122C2.84827 9.7581 2.80866 9.82978 2.79071 9.90808L2.14271 12.7138L4.94957 12.0664C5.02766 12.0483 5.09913 12.0087 5.15585 11.9521L12.409 4.69779C12.7076 4.39923 12.8753 3.9943 12.8753 3.57208C12.8753 3.14985 12.7076 2.74492 12.409 2.44636C12.1104 2.14781 11.7055 1.98008 11.2833 1.98008C10.8611 1.98008 10.4561 2.14781 10.1576 2.44636L10.1581 2.44693Z" fill="#6C63FF"/>
</svg>
