<svg width="30" height="30" viewBox="0 0 30 30" fill="none" xmlns="http://www.w3.org/2000/svg">
<path d="M5 25V23.75C5 21.4294 6.02723 19.2038 7.85571 17.5628C9.68419 15.9219 12.1641 15 14.75 15V15C17.3359 15 19.8158 15.9219 21.6443 17.5628C23.4728 19.2038 24.5 21.4294 24.5 23.75V25M14.75 15C16.2276 15 17.6448 14.4732 18.6896 13.5355C19.7344 12.5979 20.3214 11.3261 20.3214 10C20.3214 8.67392 19.7344 7.40215 18.6896 6.46447C17.6448 5.52678 16.2276 5 14.75 5C13.2724 5 11.8553 5.52678 10.8104 6.46447C9.76556 7.40215 9.17857 8.67392 9.17857 10C9.17857 11.3261 9.76556 12.5979 10.8104 13.5355C11.8553 14.4732 13.2724 15 14.75 15V15Z" stroke="black" stroke-width="1.5" stroke-linecap="round" stroke-linejoin="round"/>
</svg>
